<mxfile host="app.diagrams.net" modified="2023-10-05T18:18:59.777Z" agent="Mozilla/5.0 (Windows NT 10.0; Win64; x64) AppleWebKit/537.36 (KHTML, like Gecko) Chrome/116.0.0.0 Safari/537.36 OPR/102.0.0.0" etag="ThkjyXhmYuLfwQ1CtInb" version="21.7.4" type="device">
  <diagram name="1 oldal" id="Cqy__mXjgRHM_xguueD7">
    <mxGraphModel dx="377" dy="672" grid="1" gridSize="10" guides="1" tooltips="1" connect="1" arrows="1" fold="1" page="1" pageScale="1" pageWidth="827" pageHeight="1169" math="0" shadow="0">
      <root>
        <mxCell id="0" />
        <mxCell id="1" parent="0" />
        <mxCell id="3-ohIEi44K5NElbrwC1C-3" value="" style="edgeStyle=orthogonalEdgeStyle;rounded=0;orthogonalLoop=1;jettySize=auto;html=1;" edge="1" parent="1" source="3-ohIEi44K5NElbrwC1C-1" target="3-ohIEi44K5NElbrwC1C-2">
          <mxGeometry relative="1" as="geometry" />
        </mxCell>
        <mxCell id="3-ohIEi44K5NElbrwC1C-1" value="start" style="ellipse;whiteSpace=wrap;html=1;" vertex="1" parent="1">
          <mxGeometry x="120" y="40" width="120" height="80" as="geometry" />
        </mxCell>
        <mxCell id="3-ohIEi44K5NElbrwC1C-7" value="" style="edgeStyle=orthogonalEdgeStyle;rounded=0;orthogonalLoop=1;jettySize=auto;html=1;" edge="1" parent="1" source="3-ohIEi44K5NElbrwC1C-2" target="3-ohIEi44K5NElbrwC1C-6">
          <mxGeometry relative="1" as="geometry" />
        </mxCell>
        <mxCell id="3-ohIEi44K5NElbrwC1C-2" value="lista = [] , n:egÃ©sz , Ttul()" style="shape=parallelogram;perimeter=parallelogramPerimeter;whiteSpace=wrap;html=1;fixedSize=1;" vertex="1" parent="1">
          <mxGeometry x="95" y="160" width="170" height="80" as="geometry" />
        </mxCell>
        <mxCell id="3-ohIEi44K5NElbrwC1C-9" value="" style="edgeStyle=orthogonalEdgeStyle;rounded=0;orthogonalLoop=1;jettySize=auto;html=1;" edge="1" parent="1" source="3-ohIEi44K5NElbrwC1C-6" target="3-ohIEi44K5NElbrwC1C-8">
          <mxGeometry relative="1" as="geometry" />
        </mxCell>
        <mxCell id="3-ohIEi44K5NElbrwC1C-6" value="db = 0" style="whiteSpace=wrap;html=1;" vertex="1" parent="1">
          <mxGeometry x="100" y="270" width="160" height="90" as="geometry" />
        </mxCell>
        <mxCell id="3-ohIEi44K5NElbrwC1C-11" value="" style="edgeStyle=orthogonalEdgeStyle;rounded=0;orthogonalLoop=1;jettySize=auto;html=1;" edge="1" parent="1" source="3-ohIEi44K5NElbrwC1C-8" target="3-ohIEi44K5NElbrwC1C-10">
          <mxGeometry relative="1" as="geometry" />
        </mxCell>
        <mxCell id="3-ohIEi44K5NElbrwC1C-33" style="edgeStyle=orthogonalEdgeStyle;rounded=0;orthogonalLoop=1;jettySize=auto;html=1;" edge="1" parent="1" source="3-ohIEi44K5NElbrwC1C-8">
          <mxGeometry relative="1" as="geometry">
            <mxPoint x="60" y="760" as="targetPoint" />
            <Array as="points">
              <mxPoint x="50" y="500" />
            </Array>
          </mxGeometry>
        </mxCell>
        <mxCell id="3-ohIEi44K5NElbrwC1C-8" value="i &amp;lt; n -1" style="rhombus;whiteSpace=wrap;html=1;" vertex="1" parent="1">
          <mxGeometry x="100" y="419" width="160" height="165" as="geometry" />
        </mxCell>
        <mxCell id="3-ohIEi44K5NElbrwC1C-15" value="" style="edgeStyle=orthogonalEdgeStyle;rounded=0;orthogonalLoop=1;jettySize=auto;html=1;" edge="1" parent="1" source="3-ohIEi44K5NElbrwC1C-10" target="3-ohIEi44K5NElbrwC1C-14">
          <mxGeometry relative="1" as="geometry" />
        </mxCell>
        <mxCell id="3-ohIEi44K5NElbrwC1C-10" value="i++" style="whiteSpace=wrap;html=1;" vertex="1" parent="1">
          <mxGeometry x="340" y="471.5" width="120" height="60" as="geometry" />
        </mxCell>
        <mxCell id="3-ohIEi44K5NElbrwC1C-17" value="" style="edgeStyle=orthogonalEdgeStyle;rounded=0;orthogonalLoop=1;jettySize=auto;html=1;" edge="1" parent="1" source="3-ohIEi44K5NElbrwC1C-14" target="3-ohIEi44K5NElbrwC1C-16">
          <mxGeometry relative="1" as="geometry" />
        </mxCell>
        <mxCell id="3-ohIEi44K5NElbrwC1C-22" style="edgeStyle=orthogonalEdgeStyle;rounded=0;orthogonalLoop=1;jettySize=auto;html=1;entryX=0.5;entryY=1;entryDx=0;entryDy=0;" edge="1" parent="1" source="3-ohIEi44K5NElbrwC1C-14" target="3-ohIEi44K5NElbrwC1C-8">
          <mxGeometry relative="1" as="geometry">
            <mxPoint x="180" y="660" as="targetPoint" />
            <Array as="points">
              <mxPoint x="585" y="680" />
              <mxPoint x="180" y="680" />
            </Array>
          </mxGeometry>
        </mxCell>
        <mxCell id="3-ohIEi44K5NElbrwC1C-14" value="Ttul(lista[i])" style="rhombus;whiteSpace=wrap;html=1;" vertex="1" parent="1">
          <mxGeometry x="530" y="445.75" width="110" height="111.5" as="geometry" />
        </mxCell>
        <mxCell id="3-ohIEi44K5NElbrwC1C-27" style="edgeStyle=orthogonalEdgeStyle;rounded=0;orthogonalLoop=1;jettySize=auto;html=1;" edge="1" parent="1" source="3-ohIEi44K5NElbrwC1C-16">
          <mxGeometry relative="1" as="geometry">
            <mxPoint x="580" y="680" as="targetPoint" />
            <Array as="points">
              <mxPoint x="775" y="630" />
              <mxPoint x="776" y="630" />
              <mxPoint x="776" y="680" />
            </Array>
          </mxGeometry>
        </mxCell>
        <mxCell id="3-ohIEi44K5NElbrwC1C-16" value="db++" style="whiteSpace=wrap;html=1;" vertex="1" parent="1">
          <mxGeometry x="700" y="471.5" width="120" height="60" as="geometry" />
        </mxCell>
        <mxCell id="3-ohIEi44K5NElbrwC1C-29" value="I" style="text;html=1;align=center;verticalAlign=middle;resizable=0;points=[];autosize=1;strokeColor=none;fillColor=none;" vertex="1" parent="1">
          <mxGeometry x="235" y="438" width="30" height="30" as="geometry" />
        </mxCell>
        <mxCell id="3-ohIEi44K5NElbrwC1C-30" value="H" style="text;html=1;align=center;verticalAlign=middle;resizable=0;points=[];autosize=1;strokeColor=none;fillColor=none;" vertex="1" parent="1">
          <mxGeometry x="85" y="438" width="30" height="30" as="geometry" />
        </mxCell>
        <mxCell id="3-ohIEi44K5NElbrwC1C-31" value="I" style="text;html=1;align=center;verticalAlign=middle;resizable=0;points=[];autosize=1;strokeColor=none;fillColor=none;" vertex="1" parent="1">
          <mxGeometry x="615" y="448" width="30" height="30" as="geometry" />
        </mxCell>
        <mxCell id="3-ohIEi44K5NElbrwC1C-32" value="H" style="text;html=1;align=center;verticalAlign=middle;resizable=0;points=[];autosize=1;strokeColor=none;fillColor=none;" vertex="1" parent="1">
          <mxGeometry x="615" y="540" width="30" height="30" as="geometry" />
        </mxCell>
        <mxCell id="3-ohIEi44K5NElbrwC1C-35" value="ki: db" style="shape=parallelogram;perimeter=parallelogramPerimeter;whiteSpace=wrap;html=1;fixedSize=1;" vertex="1" parent="1">
          <mxGeometry x="50" y="730" width="120" height="60" as="geometry" />
        </mxCell>
      </root>
    </mxGraphModel>
  </diagram>
</mxfile>
